<svg width="40" height="40" viewBox="0 0 40 40" fill="none" xmlns="http://www.w3.org/2000/svg">
<path d="M24.1667 5H13.1201C12.3176 5 11.6667 5.65083 11.6667 6.45333V12.5025H24.1667V5Z" fill="#169154"/>
<path d="M11.6667 27.545V33.5466C11.6667 34.3491 12.3176 35 13.1192 35H24.1667V27.545H11.6667Z" fill="#18482A"/>
<path d="M11.6667 12.5025H24.1667V20.0042H11.6667V12.5025Z" fill="#0C8045"/>
<path d="M11.6667 20.0042H24.1667V27.5458H11.6667V20.0042Z" fill="#17472A"/>
<path d="M35.2134 5H24.1667V12.5025H36.6667V6.45333C36.6667 5.65083 36.0159 5 35.2134 5Z" fill="#29C27F"/>
<path d="M24.1667 27.545V35H35.2142C36.0159 35 36.6667 34.3491 36.6667 33.5475V27.5458H24.1667V27.545Z" fill="#27663F"/>
<path d="M24.1667 12.5025H36.6667V20.0042H24.1667V12.5025Z" fill="#19AC65"/>
<path d="M24.1667 20.0042H36.6667V27.5458H24.1667V20.0042Z" fill="#129652"/>
<path d="M18.5991 28.3333H4.73409C3.96075 28.3333 3.33325 27.7058 3.33325 26.9325V13.0675C3.33325 12.2942 3.96075 11.6667 4.73409 11.6667H18.5991C19.3724 11.6667 19.9999 12.2942 19.9999 13.0675V26.9325C19.9999 27.7058 19.3724 28.3333 18.5991 28.3333Z" fill="#0C7238"/>
<path d="M8.1724 15.8333H10.1607L11.7741 18.9617L13.4791 15.8333H15.3366L12.7774 20L15.3949 24.1667H13.4357L11.6774 20.8917L9.92657 24.1667H7.93823L10.5991 19.985L8.1724 15.8333Z" fill="white"/>
</svg>
